<?xml version="1.0" encoding="utf-8"?>
<!-- Generator: Adobe Illustrator 15.0.0, SVG Export Plug-In . SVG Version: 6.00 Build 0)  -->
<!DOCTYPE svg PUBLIC "-//W3C//DTD SVG 1.1//EN" "http://www.w3.org/Graphics/SVG/1.1/DTD/svg11.dtd">
<svg version="1.1" id="Camada_1" xmlns="http://www.w3.org/2000/svg" xmlns:xlink="http://www.w3.org/1999/xlink" x="0px" y="0px"
	 width="50px" height="50px" viewBox="0 0 50 50" enable-background="new 0 0 50 50" xml:space="preserve">
<g>
	<polygon fill="#3E3D40" points="34.922,12.906 32.969,14.607 32.969,16.309 36.859,16.309 36.859,14.607 	"/>
	<path fill="#3E3D40" d="M32.961,16.727v18.313h3.891V16.727H32.961z M36.224,34.583h-0.666V17.292h0.666V34.583z"/>
	<path fill="#3E3D40" d="M36.063,38.063c-0.859,0-1.656,0-2.422,0s-0.688-0.69-0.688-0.69v-1.919h3.891v1.919
		C36.844,37.372,36.844,38.063,36.063,38.063z"/>
	<g>
		<polygon fill="#3E3D40" points="26.872,19.055 26.378,20.301 27.364,20.301 		"/>
		<path fill="#3E3D40" d="M16.557,19.779c0.133-0.112,0.199-0.27,0.199-0.475c0-0.173-0.052-0.297-0.156-0.371
			s-0.278-0.111-0.521-0.111h-0.252v1.125h0.166C16.236,19.947,16.424,19.891,16.557,19.779z"/>
		<polygon fill="#3E3D40" points="18.655,19.055 18.161,20.301 19.147,20.301 		"/>
		<path fill="#3E3D40" d="M32.093,16.766c-0.05,0-0.082,0-0.093,0c-1.484,0-1.302-1.375-1.302-1.375l-0.011-3.516H14.672
			l-1.531,1.375v24.875h3.75c0,0,3.563-3.75,8-3.75S32.453,38,32.453,38V16.766C32.266,16.766,32.163,16.766,32.093,16.766z
			 M28.533,20.945c0.325,0.151,0.593,0.227,0.803,0.227c0.161,0,0.291-0.042,0.39-0.127s0.147-0.196,0.147-0.334
			c0-0.113-0.032-0.209-0.097-0.289s-0.184-0.168-0.356-0.266l-0.199-0.115c-0.246-0.141-0.42-0.273-0.521-0.397
			s-0.151-0.269-0.151-0.435c0-0.223,0.081-0.406,0.242-0.55s0.367-0.216,0.617-0.216c0.223,0,0.458,0.037,0.705,0.111v0.375
			c-0.305-0.12-0.532-0.18-0.682-0.18c-0.142,0-0.259,0.038-0.352,0.113s-0.139,0.17-0.139,0.285c0,0.096,0.034,0.182,0.102,0.256
			s0.191,0.163,0.371,0.266l0.207,0.117c0.25,0.142,0.425,0.276,0.523,0.402s0.148,0.278,0.148,0.455
			c0,0.251-0.093,0.453-0.278,0.605s-0.432,0.229-0.737,0.229c-0.194,0-0.442-0.042-0.744-0.127V20.945z M26.706,18.516h0.406
			l1.129,2.891h-0.443l-0.314-0.801h-1.225l-0.318,0.801H25.56L26.706,18.516z M22.98,18.516h2.461v0.307h-1.025v2.584h-0.41v-2.584
			H22.98V18.516z M20.471,18.516h0.41v1.824c0,0.291,0.054,0.501,0.161,0.634s0.278,0.198,0.513,0.198
			c0.229,0,0.392-0.062,0.487-0.187s0.144-0.335,0.144-0.632v-1.838h0.359v1.832c0,0.395-0.081,0.682-0.243,0.861
			s-0.42,0.27-0.774,0.27c-0.361,0-0.627-0.093-0.799-0.279s-0.258-0.474-0.258-0.863V18.516z M18.489,18.516h0.406l1.129,2.891
			h-0.443l-0.314-0.801h-1.225l-0.318,0.801h-0.381L18.489,18.516z M15.42,18.516h0.787c0.349,0,0.6,0.059,0.752,0.177
			s0.229,0.312,0.229,0.581c0,0.307-0.104,0.548-0.313,0.723s-0.498,0.262-0.867,0.262h-0.182v1.148H15.42V18.516z M30.308,31.084
			H15.412v-1.292h14.896V31.084z M30.308,28.771H15.412v-1.292h14.896V28.771z M30.308,26.396H15.412v-1.292h14.896V26.396z
			 M30.308,24.083H15.412v-1.292h14.896V24.083z"/>
	</g>
</g>
</svg>
